# xmcd
# Track frame offsets:
# 150
# 15926
# 30755
# 45222
# 61329
# 73620
# 87110
# 102259
# 120955
# 138094
# 154254
# 171862
# 185584
# 198481
# 212857
# 227978
# 241003
# 255704
#
# Disc length: 3600 seconds
# Revision: 3
# Processed by: cddbd v1.5.1PL2 Copyright (c) Steve Scherf et al.
# Submitted via: VisiTrax 2.10.0.248 - For more info visit www.synapsa.com
#
DISCID=df0e0e12
DTITLE=Various Artist - Country Radio - 2006-04
DYEAR=2006
DGENRE=Country
TTITLE0=Chris Cagle - Wal-Mart Parking Lot
TTITLE1=Josh Gracin - Favorite State of Mind
TTITLE2=Hank Williams, Jr. w/Gretchen Wilson, Big and Rich, and Van Zandt - That'
TTITLE2=s How They Do It in Dixie
TTITLE3=Faith Hill - Lucky One, The
TTITLE4=Billy Currington - Why, Why, Why
TTITLE5=Scotty Emerick - What's Up With That
TTITLE6=Gretchen Wilson f/Merle Haggard - Politically Uncorrect
TTITLE7=George Strait - Seashores of Old Mexico, The
TTITLE8=Eric Church - How 'Bout You
TTITLE9=Steve Holy - Brand New Girlfriend
TTITLE10=Hot Apple Pie - Easy Does It
TTITLE11=Megan Mullins - Ain't What It Used to Be
TTITLE12=Jake Owen - Yee Haw
TTITLE13=Danielle Peck - Findin' a Good Man
TTITLE14=Bomshel - It Was An Absolutely Finger Lickin', Grits and Fried Chicke
TTITLE14=n Country Music Love Song
TTITLE15=Carolina Rain - Get Outta My Way
TTITLE16=Shannon Brown - Pearls
TTITLE17=Montgomery Gentry - She Don't Tell Me To
EXTD=Resubmitted by Larry@YourTexasMusic.com
EXTT0=
EXTT1=
EXTT2=
EXTT3=
EXTT4=
EXTT5=
EXTT6=
EXTT7=
EXTT8=
EXTT9=
EXTT10=
EXTT11=
EXTT12=
EXTT13=
EXTT14=
EXTT15=
EXTT16=
EXTT17=
PLAYORDER=
